<mxfile host="Electron" agent="Mozilla/5.0 (X11; Linux x86_64) AppleWebKit/537.36 (KHTML, like Gecko) draw.io/26.0.9 Chrome/128.0.6613.186 Electron/32.3.0 Safari/537.36" version="26.0.9" pages="5">
  <diagram name="1_1" id="raGk_D8FTLXwgUmbc4jt">
    <mxGraphModel dx="318" dy="492" grid="1" gridSize="10" guides="1" tooltips="1" connect="1" arrows="1" fold="1" page="1" pageScale="1" pageWidth="220" pageHeight="160" math="0" shadow="0">
      <root>
        <mxCell id="0" />
        <mxCell id="1" parent="0" />
        <mxCell id="9O1mxxfFyx1soMVcyxZJ-12" value="nums" style="text;html=1;align=center;verticalAlign=middle;whiteSpace=wrap;rounded=0;fontSize=10;" parent="1" vertex="1">
          <mxGeometry x="60" y="100" width="40" height="20" as="geometry" />
        </mxCell>
        <mxCell id="9O1mxxfFyx1soMVcyxZJ-17" value="1" style="text;html=1;align=center;verticalAlign=middle;whiteSpace=wrap;rounded=0;fillColor=#dae8fc;strokeColor=#6c8ebf;fontSize=14;fontColor=#333333;" parent="1" vertex="1">
          <mxGeometry x="60" y="40" width="40" height="20" as="geometry" />
        </mxCell>
        <mxCell id="U2DqZoEg6OzWdNZ3DN0K-9" style="edgeStyle=orthogonalEdgeStyle;rounded=0;orthogonalLoop=1;jettySize=auto;html=1;exitX=1;exitY=0.5;exitDx=0;exitDy=0;entryX=0;entryY=0.5;entryDx=0;entryDy=0;fillColor=#f5f5f5;strokeColor=#666666;" edge="1" parent="1" source="9O1mxxfFyx1soMVcyxZJ-17" target="U2DqZoEg6OzWdNZ3DN0K-3">
          <mxGeometry relative="1" as="geometry" />
        </mxCell>
        <mxCell id="U8iKYlKsDPHqWJgURIjQ-1" value="1" style="text;html=1;align=center;verticalAlign=middle;whiteSpace=wrap;rounded=0;fillColor=#f5f5f5;strokeColor=#666666;fontSize=14;fontColor=#333333;" vertex="1" parent="1">
          <mxGeometry x="60" y="60" width="40" height="20" as="geometry" />
        </mxCell>
        <mxCell id="U2DqZoEg6OzWdNZ3DN0K-10" style="edgeStyle=orthogonalEdgeStyle;rounded=0;orthogonalLoop=1;jettySize=auto;html=1;exitX=1;exitY=0.5;exitDx=0;exitDy=0;entryX=0;entryY=0.5;entryDx=0;entryDy=0;fillColor=#f5f5f5;strokeColor=#666666;" edge="1" parent="1" source="U8iKYlKsDPHqWJgURIjQ-2" target="U2DqZoEg6OzWdNZ3DN0K-4">
          <mxGeometry relative="1" as="geometry" />
        </mxCell>
        <mxCell id="U8iKYlKsDPHqWJgURIjQ-2" value="2" style="text;html=1;align=center;verticalAlign=middle;whiteSpace=wrap;rounded=0;fillColor=#d5e8d4;strokeColor=#82b366;fontSize=14;fontColor=#333333;" vertex="1" parent="1">
          <mxGeometry x="60" y="80" width="40" height="20" as="geometry" />
        </mxCell>
        <mxCell id="U8iKYlKsDPHqWJgURIjQ-8" value="0" style="text;html=1;align=center;verticalAlign=middle;whiteSpace=wrap;rounded=0;fontSize=10;" vertex="1" parent="1">
          <mxGeometry x="40" y="40" width="20" height="20" as="geometry" />
        </mxCell>
        <mxCell id="U8iKYlKsDPHqWJgURIjQ-9" value="1" style="text;html=1;align=center;verticalAlign=middle;whiteSpace=wrap;rounded=0;fontSize=10;" vertex="1" parent="1">
          <mxGeometry x="40" y="60" width="20" height="20" as="geometry" />
        </mxCell>
        <mxCell id="U8iKYlKsDPHqWJgURIjQ-10" value="2" style="text;html=1;align=center;verticalAlign=middle;whiteSpace=wrap;rounded=0;fontSize=10;" vertex="1" parent="1">
          <mxGeometry x="40" y="80" width="20" height="20" as="geometry" />
        </mxCell>
        <mxCell id="U2DqZoEg6OzWdNZ3DN0K-1" value="distinct" style="text;html=1;align=center;verticalAlign=middle;whiteSpace=wrap;rounded=0;fontSize=10;" vertex="1" parent="1">
          <mxGeometry x="140" y="100" width="40" height="20" as="geometry" />
        </mxCell>
        <mxCell id="U2DqZoEg6OzWdNZ3DN0K-3" value="1" style="text;html=1;align=center;verticalAlign=middle;whiteSpace=wrap;rounded=0;fillColor=#dae8fc;strokeColor=#6c8ebf;fontSize=14;fontColor=#333333;" vertex="1" parent="1">
          <mxGeometry x="140" y="60" width="40" height="20" as="geometry" />
        </mxCell>
        <mxCell id="U2DqZoEg6OzWdNZ3DN0K-4" value="2" style="text;html=1;align=center;verticalAlign=middle;whiteSpace=wrap;rounded=0;fillColor=#d5e8d4;strokeColor=#82b366;fontSize=14;fontColor=#333333;" vertex="1" parent="1">
          <mxGeometry x="140" y="80" width="40" height="20" as="geometry" />
        </mxCell>
      </root>
    </mxGraphModel>
  </diagram>
  <diagram name="1_2" id="F_DiLJXj3m44FTgUOlJh">
    <mxGraphModel dx="378" dy="586" grid="1" gridSize="10" guides="1" tooltips="1" connect="1" arrows="1" fold="1" page="1" pageScale="1" pageWidth="220" pageHeight="160" math="0" shadow="0">
      <root>
        <mxCell id="Ru-054mqJp9luutXKEK4-0" />
        <mxCell id="Ru-054mqJp9luutXKEK4-1" parent="Ru-054mqJp9luutXKEK4-0" />
        <mxCell id="Ru-054mqJp9luutXKEK4-2" value="nums" style="text;html=1;align=center;verticalAlign=middle;whiteSpace=wrap;rounded=0;fontSize=10;" vertex="1" parent="Ru-054mqJp9luutXKEK4-1">
          <mxGeometry x="140" y="100" width="40" height="20" as="geometry" />
        </mxCell>
        <mxCell id="Ru-054mqJp9luutXKEK4-3" value="1" style="text;html=1;align=center;verticalAlign=middle;whiteSpace=wrap;rounded=0;fillColor=#dae8fc;strokeColor=#6c8ebf;fontSize=14;fontColor=#333333;" vertex="1" parent="Ru-054mqJp9luutXKEK4-1">
          <mxGeometry x="140" y="40" width="40" height="20" as="geometry" />
        </mxCell>
        <mxCell id="Ru-054mqJp9luutXKEK4-5" value="2" style="text;html=1;align=center;verticalAlign=middle;whiteSpace=wrap;rounded=0;fillColor=#d5e8d4;strokeColor=#82b366;fontSize=14;fontColor=#333333;" vertex="1" parent="Ru-054mqJp9luutXKEK4-1">
          <mxGeometry x="140" y="60" width="40" height="20" as="geometry" />
        </mxCell>
        <mxCell id="Ru-054mqJp9luutXKEK4-7" value="2" style="text;html=1;align=center;verticalAlign=middle;whiteSpace=wrap;rounded=0;fillColor=#f5f5f5;strokeColor=#666666;fontSize=14;fontColor=#333333;" vertex="1" parent="Ru-054mqJp9luutXKEK4-1">
          <mxGeometry x="140" y="80" width="40" height="20" as="geometry" />
        </mxCell>
        <mxCell id="Ru-054mqJp9luutXKEK4-8" value="0" style="text;html=1;align=center;verticalAlign=middle;whiteSpace=wrap;rounded=0;fontSize=10;" vertex="1" parent="Ru-054mqJp9luutXKEK4-1">
          <mxGeometry x="120" y="40" width="20" height="20" as="geometry" />
        </mxCell>
        <mxCell id="Ru-054mqJp9luutXKEK4-9" value="1" style="text;html=1;align=center;verticalAlign=middle;whiteSpace=wrap;rounded=0;fontSize=10;" vertex="1" parent="Ru-054mqJp9luutXKEK4-1">
          <mxGeometry x="120" y="60" width="20" height="20" as="geometry" />
        </mxCell>
        <mxCell id="Ru-054mqJp9luutXKEK4-10" value="2" style="text;html=1;align=center;verticalAlign=middle;whiteSpace=wrap;rounded=0;fontSize=10;" vertex="1" parent="Ru-054mqJp9luutXKEK4-1">
          <mxGeometry x="120" y="80" width="20" height="20" as="geometry" />
        </mxCell>
        <mxCell id="Ru-054mqJp9luutXKEK4-11" value="distinct" style="text;html=1;align=center;verticalAlign=middle;whiteSpace=wrap;rounded=0;fontSize=10;" vertex="1" parent="Ru-054mqJp9luutXKEK4-1">
          <mxGeometry x="40" y="100" width="40" height="20" as="geometry" />
        </mxCell>
        <mxCell id="ar_ecOw89UwBtmASmxqI-0" style="edgeStyle=orthogonalEdgeStyle;rounded=0;orthogonalLoop=1;jettySize=auto;html=1;exitX=1;exitY=0.5;exitDx=0;exitDy=0;entryX=0;entryY=0.5;entryDx=0;entryDy=0;fillColor=#f5f5f5;strokeColor=#666666;" edge="1" parent="Ru-054mqJp9luutXKEK4-1" source="Ru-054mqJp9luutXKEK4-12" target="Ru-054mqJp9luutXKEK4-3">
          <mxGeometry relative="1" as="geometry" />
        </mxCell>
        <mxCell id="Ru-054mqJp9luutXKEK4-12" value="1" style="text;html=1;align=center;verticalAlign=middle;whiteSpace=wrap;rounded=0;fillColor=#dae8fc;strokeColor=#6c8ebf;fontSize=14;fontColor=#333333;" vertex="1" parent="Ru-054mqJp9luutXKEK4-1">
          <mxGeometry x="40" y="60" width="40" height="20" as="geometry" />
        </mxCell>
        <mxCell id="ar_ecOw89UwBtmASmxqI-1" style="edgeStyle=orthogonalEdgeStyle;rounded=0;orthogonalLoop=1;jettySize=auto;html=1;exitX=1;exitY=0.5;exitDx=0;exitDy=0;entryX=0;entryY=0.5;entryDx=0;entryDy=0;fillColor=#f5f5f5;strokeColor=#666666;" edge="1" parent="Ru-054mqJp9luutXKEK4-1" source="Ru-054mqJp9luutXKEK4-13" target="Ru-054mqJp9luutXKEK4-5">
          <mxGeometry relative="1" as="geometry">
            <Array as="points">
              <mxPoint x="120" y="90" />
              <mxPoint x="120" y="70" />
            </Array>
          </mxGeometry>
        </mxCell>
        <mxCell id="Ru-054mqJp9luutXKEK4-13" value="2" style="text;html=1;align=center;verticalAlign=middle;whiteSpace=wrap;rounded=0;fillColor=#d5e8d4;strokeColor=#82b366;fontSize=14;fontColor=#333333;" vertex="1" parent="Ru-054mqJp9luutXKEK4-1">
          <mxGeometry x="40" y="80" width="40" height="20" as="geometry" />
        </mxCell>
      </root>
    </mxGraphModel>
  </diagram>
  <diagram name="2_1" id="dBrec55Gv8xQNl8w6fJL">
    <mxGraphModel dx="479" dy="602" grid="1" gridSize="10" guides="1" tooltips="1" connect="1" arrows="1" fold="1" page="1" pageScale="1" pageWidth="300" pageHeight="180" math="0" shadow="0">
      <root>
        <mxCell id="Zsnaos3-nTfwneWZ6p7I-0" />
        <mxCell id="Zsnaos3-nTfwneWZ6p7I-1" parent="Zsnaos3-nTfwneWZ6p7I-0" />
        <mxCell id="-kUaC_Pvek_3Fj-TUdSX-2" style="edgeStyle=orthogonalEdgeStyle;rounded=0;orthogonalLoop=1;jettySize=auto;html=1;exitX=0.5;exitY=0;exitDx=0;exitDy=0;entryX=0;entryY=0.5;entryDx=0;entryDy=0;fillColor=#f5f5f5;strokeColor=#666666;" edge="1" parent="Zsnaos3-nTfwneWZ6p7I-1" source="Zsnaos3-nTfwneWZ6p7I-10" target="Zsnaos3-nTfwneWZ6p7I-4">
          <mxGeometry relative="1" as="geometry" />
        </mxCell>
        <mxCell id="Zsnaos3-nTfwneWZ6p7I-2" value="nums" style="text;html=1;align=center;verticalAlign=middle;whiteSpace=wrap;rounded=0;fontSize=10;" vertex="1" parent="Zsnaos3-nTfwneWZ6p7I-1">
          <mxGeometry x="200" y="120" width="40" height="20" as="geometry" />
        </mxCell>
        <mxCell id="Zsnaos3-nTfwneWZ6p7I-3" value="1" style="text;html=1;align=center;verticalAlign=middle;whiteSpace=wrap;rounded=0;fillColor=#d5e8d4;strokeColor=#82b366;fontSize=14;fontColor=#333333;" vertex="1" parent="Zsnaos3-nTfwneWZ6p7I-1">
          <mxGeometry x="200" y="60" width="40" height="20" as="geometry" />
        </mxCell>
        <mxCell id="Mcml537mHAAAvBj1suol-3" value="&lt;font style=&quot;font-size: 10px;&quot;&gt;==,&lt;/font&gt;&lt;div&gt;&lt;font style=&quot;font-size: 10px;&quot;&gt;skip&lt;/font&gt;&lt;/div&gt;" style="edgeStyle=orthogonalEdgeStyle;rounded=0;orthogonalLoop=1;jettySize=auto;html=1;exitX=1;exitY=0.5;exitDx=0;exitDy=0;entryX=1;entryY=0.5;entryDx=0;entryDy=0;fillColor=#dae8fc;strokeColor=#6c8ebf;" edge="1" parent="Zsnaos3-nTfwneWZ6p7I-1" source="Zsnaos3-nTfwneWZ6p7I-4" target="Zsnaos3-nTfwneWZ6p7I-3">
          <mxGeometry relative="1" as="geometry">
            <Array as="points">
              <mxPoint x="260" y="90" />
              <mxPoint x="260" y="70" />
            </Array>
          </mxGeometry>
        </mxCell>
        <mxCell id="Zsnaos3-nTfwneWZ6p7I-4" value="1" style="text;html=1;align=center;verticalAlign=middle;whiteSpace=wrap;rounded=0;fillColor=#dae8fc;strokeColor=#6c8ebf;fontSize=14;fontColor=#333333;" vertex="1" parent="Zsnaos3-nTfwneWZ6p7I-1">
          <mxGeometry x="200" y="80" width="40" height="20" as="geometry" />
        </mxCell>
        <mxCell id="Zsnaos3-nTfwneWZ6p7I-5" value="2" style="text;html=1;align=center;verticalAlign=middle;whiteSpace=wrap;rounded=0;fillColor=#f5f5f5;strokeColor=#666666;fontSize=14;fontColor=#333333;" vertex="1" parent="Zsnaos3-nTfwneWZ6p7I-1">
          <mxGeometry x="200" y="100" width="40" height="20" as="geometry" />
        </mxCell>
        <mxCell id="Zsnaos3-nTfwneWZ6p7I-6" value="0" style="text;html=1;align=center;verticalAlign=middle;whiteSpace=wrap;rounded=0;fontSize=10;" vertex="1" parent="Zsnaos3-nTfwneWZ6p7I-1">
          <mxGeometry x="180" y="60" width="20" height="20" as="geometry" />
        </mxCell>
        <mxCell id="Zsnaos3-nTfwneWZ6p7I-7" value="1" style="text;html=1;align=center;verticalAlign=middle;whiteSpace=wrap;rounded=0;fontSize=10;" vertex="1" parent="Zsnaos3-nTfwneWZ6p7I-1">
          <mxGeometry x="180" y="80" width="20" height="20" as="geometry" />
        </mxCell>
        <mxCell id="Zsnaos3-nTfwneWZ6p7I-8" value="2" style="text;html=1;align=center;verticalAlign=middle;whiteSpace=wrap;rounded=0;fontSize=10;" vertex="1" parent="Zsnaos3-nTfwneWZ6p7I-1">
          <mxGeometry x="180" y="100" width="20" height="20" as="geometry" />
        </mxCell>
        <mxCell id="Zsnaos3-nTfwneWZ6p7I-9" value="1" style="text;html=1;align=center;verticalAlign=middle;whiteSpace=wrap;rounded=0;fillColor=#f5f5f5;strokeColor=#666666;fontSize=14;fontColor=#333333;" vertex="1" parent="Zsnaos3-nTfwneWZ6p7I-1">
          <mxGeometry x="40" y="60" width="40" height="40" as="geometry" />
        </mxCell>
        <mxCell id="Zsnaos3-nTfwneWZ6p7I-10" value="1" style="text;html=1;align=center;verticalAlign=middle;whiteSpace=wrap;rounded=0;fillColor=#f5f5f5;strokeColor=#666666;fontSize=14;fontColor=#333333;" vertex="1" parent="Zsnaos3-nTfwneWZ6p7I-1">
          <mxGeometry x="120" y="60" width="40" height="40" as="geometry" />
        </mxCell>
        <mxCell id="Zsnaos3-nTfwneWZ6p7I-11" value="start" style="text;html=1;align=center;verticalAlign=middle;whiteSpace=wrap;rounded=0;fontSize=10;" vertex="1" parent="Zsnaos3-nTfwneWZ6p7I-1">
          <mxGeometry x="40" y="100" width="40" height="20" as="geometry" />
        </mxCell>
        <mxCell id="Zsnaos3-nTfwneWZ6p7I-12" value="end" style="text;html=1;align=center;verticalAlign=middle;whiteSpace=wrap;rounded=0;fontSize=10;" vertex="1" parent="Zsnaos3-nTfwneWZ6p7I-1">
          <mxGeometry x="120" y="100" width="40" height="20" as="geometry" />
        </mxCell>
      </root>
    </mxGraphModel>
  </diagram>
  <diagram name="2_2" id="5xuRvsxdssXQhwJCwyf7">
    <mxGraphModel dx="402" dy="506" grid="1" gridSize="10" guides="1" tooltips="1" connect="1" arrows="1" fold="1" page="1" pageScale="1" pageWidth="300" pageHeight="180" math="0" shadow="0">
      <root>
        <mxCell id="irbx7j6bEJsAHRpfBaL--0" />
        <mxCell id="irbx7j6bEJsAHRpfBaL--1" parent="irbx7j6bEJsAHRpfBaL--0" />
        <mxCell id="irbx7j6bEJsAHRpfBaL--2" style="edgeStyle=orthogonalEdgeStyle;rounded=0;orthogonalLoop=1;jettySize=auto;html=1;exitX=0.5;exitY=0;exitDx=0;exitDy=0;entryX=1;entryY=0.5;entryDx=0;entryDy=0;fillColor=#ffe6cc;strokeColor=#d79b00;" edge="1" parent="irbx7j6bEJsAHRpfBaL--1" source="irbx7j6bEJsAHRpfBaL--12" target="irbx7j6bEJsAHRpfBaL--10">
          <mxGeometry relative="1" as="geometry">
            <Array as="points">
              <mxPoint x="140" y="40" />
              <mxPoint x="180" y="40" />
              <mxPoint x="180" y="110" />
            </Array>
          </mxGeometry>
        </mxCell>
        <mxCell id="irbx7j6bEJsAHRpfBaL--3" value="nums" style="text;html=1;align=center;verticalAlign=middle;whiteSpace=wrap;rounded=0;fontSize=10;" vertex="1" parent="irbx7j6bEJsAHRpfBaL--1">
          <mxGeometry x="200" y="120" width="40" height="20" as="geometry" />
        </mxCell>
        <mxCell id="irbx7j6bEJsAHRpfBaL--4" value="1" style="text;html=1;align=center;verticalAlign=middle;whiteSpace=wrap;rounded=0;fillColor=#f5f5f5;strokeColor=#666666;fontSize=14;fontColor=#333333;" vertex="1" parent="irbx7j6bEJsAHRpfBaL--1">
          <mxGeometry x="200" y="60" width="40" height="20" as="geometry" />
        </mxCell>
        <mxCell id="irbx7j6bEJsAHRpfBaL--5" value="&lt;font style=&quot;font-size: 10px;&quot;&gt;!=,&lt;/font&gt;&lt;div&gt;&lt;font style=&quot;font-size: 10px;&quot;&gt;assign&lt;/font&gt;&lt;/div&gt;" style="edgeStyle=orthogonalEdgeStyle;rounded=0;orthogonalLoop=1;jettySize=auto;html=1;exitX=1;exitY=0.5;exitDx=0;exitDy=0;entryX=1;entryY=0.5;entryDx=0;entryDy=0;fillColor=#dae8fc;strokeColor=#6c8ebf;" edge="1" parent="irbx7j6bEJsAHRpfBaL--1" source="irbx7j6bEJsAHRpfBaL--7" target="irbx7j6bEJsAHRpfBaL--6">
          <mxGeometry x="-0.3333" relative="1" as="geometry">
            <Array as="points">
              <mxPoint x="260" y="110" />
              <mxPoint x="260" y="90" />
            </Array>
            <mxPoint as="offset" />
          </mxGeometry>
        </mxCell>
        <mxCell id="irbx7j6bEJsAHRpfBaL--6" value="1" style="text;html=1;align=center;verticalAlign=middle;whiteSpace=wrap;rounded=0;fillColor=#d5e8d4;strokeColor=#82b366;fontSize=14;fontColor=#333333;" vertex="1" parent="irbx7j6bEJsAHRpfBaL--1">
          <mxGeometry x="200" y="80" width="40" height="20" as="geometry" />
        </mxCell>
        <mxCell id="irbx7j6bEJsAHRpfBaL--7" value="2" style="text;html=1;align=center;verticalAlign=middle;whiteSpace=wrap;rounded=0;fillColor=#dae8fc;strokeColor=#6c8ebf;fontSize=14;fontColor=#333333;" vertex="1" parent="irbx7j6bEJsAHRpfBaL--1">
          <mxGeometry x="200" y="100" width="40" height="20" as="geometry" />
        </mxCell>
        <mxCell id="irbx7j6bEJsAHRpfBaL--8" value="0" style="text;html=1;align=center;verticalAlign=middle;whiteSpace=wrap;rounded=0;fontSize=10;" vertex="1" parent="irbx7j6bEJsAHRpfBaL--1">
          <mxGeometry x="180" y="60" width="20" height="20" as="geometry" />
        </mxCell>
        <mxCell id="irbx7j6bEJsAHRpfBaL--9" value="1" style="text;html=1;align=center;verticalAlign=middle;whiteSpace=wrap;rounded=0;fontSize=10;" vertex="1" parent="irbx7j6bEJsAHRpfBaL--1">
          <mxGeometry x="180" y="80" width="20" height="20" as="geometry" />
        </mxCell>
        <mxCell id="irbx7j6bEJsAHRpfBaL--10" value="2" style="text;html=1;align=center;verticalAlign=middle;whiteSpace=wrap;rounded=0;fontSize=10;" vertex="1" parent="irbx7j6bEJsAHRpfBaL--1">
          <mxGeometry x="180" y="100" width="20" height="20" as="geometry" />
        </mxCell>
        <mxCell id="irbx7j6bEJsAHRpfBaL--11" value="1" style="text;html=1;align=center;verticalAlign=middle;whiteSpace=wrap;rounded=0;fillColor=#f5f5f5;strokeColor=#666666;fontSize=14;fontColor=#333333;" vertex="1" parent="irbx7j6bEJsAHRpfBaL--1">
          <mxGeometry x="40" y="60" width="40" height="40" as="geometry" />
        </mxCell>
        <mxCell id="irbx7j6bEJsAHRpfBaL--12" value="2" style="text;html=1;align=center;verticalAlign=middle;whiteSpace=wrap;rounded=0;fillColor=#ffe6cc;strokeColor=#d79b00;fontSize=14;fontColor=#333333;" vertex="1" parent="irbx7j6bEJsAHRpfBaL--1">
          <mxGeometry x="120" y="60" width="40" height="40" as="geometry" />
        </mxCell>
        <mxCell id="irbx7j6bEJsAHRpfBaL--13" value="start" style="text;html=1;align=center;verticalAlign=middle;whiteSpace=wrap;rounded=0;fontSize=10;" vertex="1" parent="irbx7j6bEJsAHRpfBaL--1">
          <mxGeometry x="40" y="100" width="40" height="20" as="geometry" />
        </mxCell>
        <mxCell id="irbx7j6bEJsAHRpfBaL--14" value="end" style="text;html=1;align=center;verticalAlign=middle;whiteSpace=wrap;rounded=0;fontSize=10;" vertex="1" parent="irbx7j6bEJsAHRpfBaL--1">
          <mxGeometry x="120" y="100" width="40" height="20" as="geometry" />
        </mxCell>
      </root>
    </mxGraphModel>
  </diagram>
  <diagram name="2_3" id="hdSoXS_6D1z24NGs53T5">
    <mxGraphModel dx="402" dy="506" grid="1" gridSize="10" guides="1" tooltips="1" connect="1" arrows="1" fold="1" page="1" pageScale="1" pageWidth="300" pageHeight="200" math="0" shadow="0">
      <root>
        <mxCell id="6HXCkasHdaXQIcoaZZ70-0" />
        <mxCell id="6HXCkasHdaXQIcoaZZ70-1" parent="6HXCkasHdaXQIcoaZZ70-0" />
        <mxCell id="6HXCkasHdaXQIcoaZZ70-2" style="edgeStyle=orthogonalEdgeStyle;rounded=0;orthogonalLoop=1;jettySize=auto;html=1;exitX=0.5;exitY=0;exitDx=0;exitDy=0;entryX=0;entryY=0.5;entryDx=0;entryDy=0;fillColor=#f5f5f5;strokeColor=#666666;" edge="1" parent="6HXCkasHdaXQIcoaZZ70-1" source="6HXCkasHdaXQIcoaZZ70-11" target="6HXCkasHdaXQIcoaZZ70-6">
          <mxGeometry relative="1" as="geometry">
            <Array as="points">
              <mxPoint x="60" y="39.97" />
              <mxPoint x="180" y="39.97" />
              <mxPoint x="180" y="109.97" />
            </Array>
          </mxGeometry>
        </mxCell>
        <mxCell id="6HXCkasHdaXQIcoaZZ70-3" value="nums" style="text;html=1;align=center;verticalAlign=middle;whiteSpace=wrap;rounded=0;fontSize=10;" vertex="1" parent="6HXCkasHdaXQIcoaZZ70-1">
          <mxGeometry x="200" y="139.97" width="40" height="20" as="geometry" />
        </mxCell>
        <mxCell id="6HXCkasHdaXQIcoaZZ70-4" value="1" style="text;html=1;align=center;verticalAlign=middle;whiteSpace=wrap;rounded=0;fillColor=#f5f5f5;strokeColor=#666666;fontSize=14;fontColor=#333333;" vertex="1" parent="6HXCkasHdaXQIcoaZZ70-1">
          <mxGeometry x="200" y="79.97" width="40" height="20" as="geometry" />
        </mxCell>
        <mxCell id="6HXCkasHdaXQIcoaZZ70-5" value="" style="edgeStyle=orthogonalEdgeStyle;rounded=0;orthogonalLoop=1;jettySize=auto;html=1;exitX=1;exitY=0.5;exitDx=0;exitDy=0;entryX=1;entryY=0.5;entryDx=0;entryDy=0;fillColor=#dae8fc;strokeColor=#6c8ebf;" edge="1" parent="6HXCkasHdaXQIcoaZZ70-1" source="6HXCkasHdaXQIcoaZZ70-7" target="6HXCkasHdaXQIcoaZZ70-6">
          <mxGeometry x="-0.3333" relative="1" as="geometry">
            <Array as="points">
              <mxPoint x="260" y="129.97" />
              <mxPoint x="260" y="109.97" />
            </Array>
            <mxPoint as="offset" />
          </mxGeometry>
        </mxCell>
        <mxCell id="6HXCkasHdaXQIcoaZZ70-6" value="2" style="text;html=1;align=center;verticalAlign=middle;whiteSpace=wrap;rounded=0;fillColor=#dae8fc;strokeColor=#6c8ebf;fontSize=14;fontColor=#333333;" vertex="1" parent="6HXCkasHdaXQIcoaZZ70-1">
          <mxGeometry x="200" y="99.97" width="40" height="20" as="geometry" />
        </mxCell>
        <mxCell id="6HXCkasHdaXQIcoaZZ70-7" value="2" style="text;html=1;align=center;verticalAlign=middle;whiteSpace=wrap;rounded=0;fillColor=#dae8fc;strokeColor=#6c8ebf;fontSize=14;fontColor=#333333;" vertex="1" parent="6HXCkasHdaXQIcoaZZ70-1">
          <mxGeometry x="200" y="119.97" width="40" height="20" as="geometry" />
        </mxCell>
        <mxCell id="6HXCkasHdaXQIcoaZZ70-8" value="0" style="text;html=1;align=center;verticalAlign=middle;whiteSpace=wrap;rounded=0;fontSize=10;" vertex="1" parent="6HXCkasHdaXQIcoaZZ70-1">
          <mxGeometry x="180" y="79.97" width="20" height="20" as="geometry" />
        </mxCell>
        <mxCell id="6HXCkasHdaXQIcoaZZ70-9" value="1" style="text;html=1;align=center;verticalAlign=middle;whiteSpace=wrap;rounded=0;fontSize=10;" vertex="1" parent="6HXCkasHdaXQIcoaZZ70-1">
          <mxGeometry x="180" y="99.97" width="20" height="20" as="geometry" />
        </mxCell>
        <mxCell id="6HXCkasHdaXQIcoaZZ70-10" value="2" style="text;html=1;align=center;verticalAlign=middle;whiteSpace=wrap;rounded=0;fontSize=10;" vertex="1" parent="6HXCkasHdaXQIcoaZZ70-1">
          <mxGeometry x="180" y="119.97" width="20" height="20" as="geometry" />
        </mxCell>
        <mxCell id="6HXCkasHdaXQIcoaZZ70-11" value="1" style="text;html=1;align=center;verticalAlign=middle;whiteSpace=wrap;rounded=0;fillColor=#f5f5f5;strokeColor=#666666;fontSize=14;fontColor=#333333;" vertex="1" parent="6HXCkasHdaXQIcoaZZ70-1">
          <mxGeometry x="40" y="79.97" width="40" height="40" as="geometry" />
        </mxCell>
        <mxCell id="Kxv4m4Eail4VfWVnlfeV-0" style="edgeStyle=orthogonalEdgeStyle;rounded=0;orthogonalLoop=1;jettySize=auto;html=1;exitX=0.5;exitY=0;exitDx=0;exitDy=0;entryX=0;entryY=0.5;entryDx=0;entryDy=0;fillColor=#f5f5f5;strokeColor=#666666;" edge="1" parent="6HXCkasHdaXQIcoaZZ70-1" source="6HXCkasHdaXQIcoaZZ70-12" target="6HXCkasHdaXQIcoaZZ70-7">
          <mxGeometry relative="1" as="geometry">
            <Array as="points">
              <mxPoint x="140" y="59.97" />
              <mxPoint x="170" y="59.97" />
              <mxPoint x="170" y="129.97" />
            </Array>
          </mxGeometry>
        </mxCell>
        <mxCell id="6HXCkasHdaXQIcoaZZ70-12" value="2" style="text;html=1;align=center;verticalAlign=middle;whiteSpace=wrap;rounded=0;fillColor=#f5f5f5;strokeColor=#666666;fontSize=14;fontColor=#333333;" vertex="1" parent="6HXCkasHdaXQIcoaZZ70-1">
          <mxGeometry x="120" y="79.97" width="40" height="40" as="geometry" />
        </mxCell>
        <mxCell id="6HXCkasHdaXQIcoaZZ70-13" value="start" style="text;html=1;align=center;verticalAlign=middle;whiteSpace=wrap;rounded=0;fontSize=10;" vertex="1" parent="6HXCkasHdaXQIcoaZZ70-1">
          <mxGeometry x="40" y="119.97" width="40" height="20" as="geometry" />
        </mxCell>
        <mxCell id="6HXCkasHdaXQIcoaZZ70-14" value="end" style="text;html=1;align=center;verticalAlign=middle;whiteSpace=wrap;rounded=0;fontSize=10;" vertex="1" parent="6HXCkasHdaXQIcoaZZ70-1">
          <mxGeometry x="120" y="119.97" width="40" height="20" as="geometry" />
        </mxCell>
      </root>
    </mxGraphModel>
  </diagram>
</mxfile>
